<svg xmlns="http://www.w3.org/2000/svg" width="48" height="48" viewBox="0 0 48 48" fill="none">
  <defs>
    <linearGradient id="g" x1="0" y1="0" x2="1" y2="1">
      <stop offset="0%" stop-color="#6D28D9"/>
      <stop offset="100%" stop-color="#06B6D4"/>
    </linearGradient>
  </defs>
  <g stroke="url(#g)" stroke-width="3" stroke-linecap="round" stroke-linejoin="round">
    <path d="M24 6c4 8-8 14-12 20-2.5 3.6-2 8.5 3 11 6 3 12-1 15-6"/>
    <path d="M8 24c8-4 14 8 20 12 3.6 2.5 8.5 2 11-3 3-6-1-12-6-15"/>
    <path d="M40 24c-8 4-14-8-20-12-3.6-2.5-8.5-2-11 3-3 6 1 12 6 15"/>
  </g>
</svg>